# xmcd CD database file
#
# Track frame offsets:
#	150
#	16463
#	35231
#	54853
#	76346
#	93826
#	115174
#	137787
#	168866
#
# Disc length: 2556 seconds
#
# Revision: 0
# Processed by: cddbd v1.4PL0 Copyright (c) Steve Scherf et al.
# Submitted via: ACXtractor (MTCDDB.DLL V2003.04.16)
#
DISCID=6909fa09
DTITLE=JESSE SYKES and THE SWEET HEREAFTER - Reckless Burning
DYEAR=2002
DGENRE=Country
TTITLE0=Title 01 - Reckless Burning
TTITLE1=Title 02 - Doralee
TTITLE2=Title 03 - Lonely Still
TTITLE3=Title 04 - Your Side Now
TTITLE4=Title 05 - Don't Let Me Go
TTITLE5=Title 06 - Drinking With Strangers
TTITLE6=Title 07 - Made Of Wood
TTITLE7=Title 08 - Love Me, Somebody
TTITLE8=Title 09 - Lullaby
EXTD=ID3G:   2 YEAR: 2002
EXTT0=
EXTT1=
EXTT2=
EXTT3=
EXTT4=
EXTT5=
EXTT6=
EXTT7=
EXTT8=
PLAYORDER=
